<svg width="24" height="24" viewBox="0 0 24 24" fill="none" xmlns="http://www.w3.org/2000/svg">
<path d="M23 11.9766C23 12.6324 22.4832 13.1477 21.8725 13.1477H5.89933L12.1477 19.0499C12.6174 19.4715 12.6174 20.221 12.1946 20.6426C11.7718 21.111 11.0671 21.111 10.5973 20.6894L2.32886 12.8198C2.09396 12.5855 2 12.3045 2 11.9766C2 11.6955 2.09396 11.4145 2.32886 11.1802L10.5973 3.31057C11.0671 2.88898 11.7718 2.88898 12.1946 3.35741C12.6174 3.779 12.6174 4.52849 12.1477 4.95008L5.89933 10.8523H21.8725C22.5302 10.8523 23 11.3676 23 11.9766Z" fill="white"/>
</svg>
