<svg width="71" height="34" viewBox="0 0 71 34" fill="none" xmlns="http://www.w3.org/2000/svg">
<g clip-path="url(#clip0_1527_22591)">
<path d="M51.6532 34C48.9058 34 46.3893 33.7431 44.1268 33.2444C39.3247 32.1829 35.6501 30.0258 33.2875 26.8827C33.1721 26.6258 33.0528 26.3613 32.9297 26.0969H32.9066L30.7826 21.59L30.417 20.8118L30.2439 20.4529C28.6278 17.1436 26.9771 13.736 25.5726 10.9367C24.1181 8.16378 23.1908 6.16911 22.4867 4.65422C21.7825 6.16911 20.8129 8.16378 19.4007 11.0651C18.054 13.8267 16.434 17.1058 14.8757 20.3282H14.8718L12.0475 26.0969H12.0398C11.9475 26.2933 11.8513 26.486 11.7628 26.6749L11.5935 27.0262C10.2891 29.7387 9.20399 31.9978 8.68838 33.2444H0C4.5866 25.3187 14.5486 5.78 16.8842 0.755556H28.2584C29.0549 2.35733 30.4517 5.12644 32.1485 8.44711C35.2807 2.76911 42.0682 0 51.4762 0C64.6088 0 70.9307 4.51067 70.9307 11.492C70.9307 11.968 70.9307 12.3156 70.8846 12.8369C70.0457 12.7916 68.6297 12.75 67.2599 12.75C65.7131 12.75 64.2971 12.75 63.4159 12.8369C63.4159 12.5347 63.4583 12.2287 63.4583 11.968C63.4583 7.93711 59.7451 5.984 51.4338 5.984C43.1225 5.984 37.9511 9.06289 37.9511 16.8678C37.9511 18.1598 38.0857 19.3384 38.3628 20.4076C38.7745 22.0244 39.4979 23.3844 40.5406 24.4913C42.807 26.9016 46.5625 28.1029 51.8302 28.1029C60.3646 28.1029 63.5929 25.8476 63.7238 20.2527C59.2603 20.2527 52.5382 20.2942 48.7365 20.3811C48.7827 19.9051 48.7827 18.9493 48.7827 18.4733C48.7827 17.476 48.7827 16.6109 48.7365 15.9158C53.0692 15.9573 57.5326 15.9573 60.7609 15.9573C63.4583 15.9573 67.3061 16.0027 70.8846 15.9158C71.6811 27.4947 68.6297 34 51.6532 34Z" fill="white"/>
</g>
<defs>
<clipPath id="clip0_1527_22591">
<rect width="71" height="34" fill="white"/>
</clipPath>
</defs>
</svg>
